<svg width="183" height="47" viewBox="0 0 183 47" fill="none" xmlns="http://www.w3.org/2000/svg">
<g clip-path="url(#clip0_207_541)">
<path d="M38.2314 23.75C38.2314 15.7227 31.7275 9.21875 23.7002 9.21875C15.6729 9.21875 9.16895 15.7227 9.16895 23.75C9.16895 31.0027 14.4828 37.0145 21.4297 38.1055V27.9506H17.7383V23.75H21.4297V20.5484C21.4297 16.9068 23.5977 14.8953 26.9182 14.8953C28.5084 14.8953 30.1713 15.1789 30.1713 15.1789V18.7531H28.3385C26.5338 18.7531 25.9707 19.8734 25.9707 21.0225V23.75H30.0008L29.3563 27.9506H25.9707V38.1055C32.9176 37.0145 38.2314 31.0027 38.2314 23.75Z" fill="#494949"/>
</g>
<path d="M97.5 11.15H85.5C82.1863 11.15 79.5 13.8363 79.5 17.15V29.15C79.5 32.4637 82.1863 35.15 85.5 35.15H97.5C100.814 35.15 103.5 32.4637 103.5 29.15V17.15C103.5 13.8363 100.814 11.15 97.5 11.15Z" fill="#494949" stroke="#494949" stroke-width="2.4" stroke-linecap="round" stroke-linejoin="round"/>
<path d="M96.3 22.3941C96.4481 23.3928 96.2775 24.4127 95.8125 25.3089C95.3476 26.2051 94.6118 26.9318 93.71 27.3857C92.8082 27.8396 91.7862 27.9976 90.7894 27.8372C89.7926 27.6768 88.8718 27.2062 88.1578 26.4923C87.4439 25.7784 86.9733 24.8575 86.8129 23.8607C86.6525 22.8639 86.8105 21.842 87.2644 20.9401C87.7183 20.0383 88.4451 19.3026 89.3412 18.8376C90.2374 18.3726 91.2573 18.202 92.256 18.3501C93.2747 18.5011 94.2179 18.9758 94.9461 19.704C95.6743 20.4323 96.149 21.3754 96.3 22.3941Z" stroke="#F2F2F2" stroke-width="2.4" stroke-linecap="round" stroke-linejoin="round"/>
<path d="M98.1001 16.55H98.1121" stroke="#F2F2F2" stroke-width="2.4" stroke-linecap="round" stroke-linejoin="round"/>
<path d="M172.928 16.8794C172.601 15.6476 171.637 14.6775 170.413 14.3483C168.195 13.7501 159.3 13.7501 159.3 13.7501C159.3 13.7501 150.406 13.7501 148.187 14.3483C146.963 14.6776 146 15.6476 145.672 16.8794C145.078 19.1121 145.078 23.7703 145.078 23.7703C145.078 23.7703 145.078 28.4285 145.672 30.6612C146 31.893 146.963 32.8226 148.187 33.1519C150.406 33.7501 159.3 33.7501 159.3 33.7501C159.3 33.7501 168.195 33.7501 170.413 33.1519C171.637 32.8226 172.601 31.893 172.928 30.6612C173.523 28.4285 173.523 23.7703 173.523 23.7703C173.523 23.7703 173.523 19.1121 172.928 16.8794ZM156.391 27.9996V19.541L163.826 23.7704L156.391 27.9996Z" fill="#494949"/>
<defs>
<clipPath id="clip0_207_541">
<rect width="30" height="30" fill="white" transform="translate(8.7002 8.75)"/>
</clipPath>
</defs>
</svg>
