<svg width="173" height="48" viewBox="0 0 173 48" fill="none" xmlns="http://www.w3.org/2000/svg">
<path d="M10.3723 40.0091C7.58227 40.0091 5.39227 39.4091 3.80227 38.2091C2.21227 37.0391 1.43227 35.4791 1.43227 33.5891C1.43227 32.7791 1.58227 31.9091 1.85227 31.0391L6.14227 32.0291C5.99227 32.4191 5.90227 32.8991 5.90227 33.4091C5.90227 35.2091 7.70227 36.3491 10.4623 36.3491C12.9523 36.3491 14.4823 35.3591 14.4823 33.7091C14.4823 32.4491 13.5523 31.6391 11.6623 31.2791L8.90227 30.7991C4.07227 29.9591 1.94227 27.9491 1.94227 24.5891C1.94227 22.7891 2.66227 21.2891 4.13227 20.0891C5.57227 18.9191 7.49227 18.3191 9.89227 18.3191C15.3823 18.3191 18.2323 20.8091 18.5623 25.3691L14.1523 25.9091C13.8223 23.2991 12.3523 21.9791 9.74227 21.9791C7.79227 21.9791 6.41227 22.9091 6.41227 24.3491C6.41227 25.6391 7.49227 26.4791 9.68227 26.8691L12.4423 27.3491C17.0023 28.1591 18.9223 30.0791 18.9223 33.2891C18.9223 35.2991 18.1423 36.9191 16.5823 38.1491C14.9923 39.3791 12.9223 40.0091 10.3723 40.0091ZM26.7284 39.5891H22.2584V18.7391H26.7284V26.9591H35.9984V18.7391H40.4684V39.5891H35.9984V31.0391H26.7284V39.5891ZM84.0984 39.5891H79.4184L77.6784 34.5791H69.7284L68.0484 39.5891H63.3684L70.8084 18.7391H76.6584L84.0984 39.5891ZM73.6284 22.9391L70.8984 31.0691H76.4484L73.6284 22.9391ZM90.742 39.5891H86.272V18.7391H92.512L97.762 30.3491L102.862 18.7391H109.132V39.5891H104.662V24.1391L99.682 35.2091H95.722L90.742 24.1391V39.5891ZM132.028 39.5891H127.348L125.608 34.5791H117.658L115.978 39.5891H111.298L118.738 18.7391H124.588L132.028 39.5891ZM121.558 22.9391L118.828 31.0691H124.378L121.558 22.9391ZM141.945 40.0091C139.155 40.0091 136.965 39.4091 135.375 38.2091C133.785 37.0391 133.005 35.4791 133.005 33.5891C133.005 32.7791 133.155 31.9091 133.425 31.0391L137.715 32.0291C137.565 32.4191 137.475 32.8991 137.475 33.4091C137.475 35.2091 139.275 36.3491 142.035 36.3491C144.525 36.3491 146.055 35.3591 146.055 33.7091C146.055 32.4491 145.125 31.6391 143.235 31.2791L140.475 30.7991C135.645 29.9591 133.515 27.9491 133.515 24.5891C133.515 22.7891 134.235 21.2891 135.705 20.0891C137.145 18.9191 139.065 18.3191 141.465 18.3191C146.955 18.3191 149.805 20.8091 150.135 25.3691L145.725 25.9091C145.395 23.2991 143.925 21.9791 141.315 21.9791C139.365 21.9791 137.985 22.9091 137.985 24.3491C137.985 25.6391 139.065 26.4791 141.255 26.8691L144.015 27.3491C148.575 28.1591 150.495 30.0791 150.495 33.2891C150.495 35.2991 149.715 36.9191 148.155 38.1491C146.565 39.3791 144.495 40.0091 141.945 40.0091ZM172.194 39.5891H167.514L165.774 34.5791H157.824L156.144 39.5891H151.464L158.904 18.7391H164.754L172.194 39.5891ZM161.724 22.9391L158.994 31.0691H164.544L161.724 22.9391Z" fill="#585858"/>
<path d="M61 39.8391C63.25 42.8391 74.5 42.8391 77.5 42.8391V47.3391C74.5 48.0891 65.9417 46.6427 65.5 46.5891C59.32 45.8391 57.94 42.8391 56.47 40.5891C55 38.3391 53.53 35.0691 52.42 32.5491L51.79 31.2591H48.97V38.9391H44.5V18.0891H53.86C56.11 18.0891 57.94 18.6891 59.32 19.8591C60.7 21.0291 61.39 22.6491 61.39 24.7191C61.39 27.8691 59.59 29.9991 56.47 30.6291C58.18 33.8991 59.9938 38.4975 61 39.8391ZM53.32 21.9591H48.97V27.4191H53.38C55.6 27.4191 56.71 26.5191 56.71 24.6891C56.71 22.8591 55.57 21.9591 53.32 21.9591Z" fill="#585858"/>
<path d="M161.986 11.7091H165.256L168.976 7.35911H164.536L161.986 11.7091Z" fill="#585858"/>
</svg>
