<svg width="22" height="22" viewBox="0 0 22 22" fill="none" xmlns="http://www.w3.org/2000/svg">
<path fill-rule="evenodd" clip-rule="evenodd" d="M15.2623 19.3718H7.74926C4.98954 19.3718 2.87238 18.375 3.47375 14.3631L4.17398 8.92599C4.54469 6.92416 5.82157 6.15802 6.94194 6.15802H16.1026C17.2394 6.15802 18.4422 6.98182 18.8705 8.92599L19.5708 14.3631C20.0815 17.9219 18.022 19.3718 15.2623 19.3718Z" stroke="#46A627" stroke-width="1.8" stroke-linecap="round" stroke-linejoin="round"/>
<path d="M15.3858 5.96031C15.3858 3.81285 13.6449 2.07195 11.4975 2.07195C10.4634 2.0676 9.47011 2.47533 8.73734 3.20501C8.00456 3.93468 7.59265 4.9262 7.59265 5.96031" stroke="#46A627" stroke-width="1.8" stroke-linecap="round" stroke-linejoin="round"/>
<path d="M14.1666 10.0134H14.1254" stroke="#46A627" stroke-width="1.8" stroke-linecap="round" stroke-linejoin="round"/>
<path d="M8.919 10.0134H8.87781" stroke="#46A627" stroke-width="1.8" stroke-linecap="round" stroke-linejoin="round"/>
</svg>
