<svg width="140" height="32" viewBox="0 0 140 32" fill="none" xmlns="http://www.w3.org/2000/svg">
<path d="M19.3765 26.28C17.5165 26.28 16.0565 25.88 14.9965 25.08C13.9365 24.3 13.4165 23.26 13.4165 22C13.4165 21.46 13.5165 20.88 13.6965 20.3L16.5565 20.96C16.4565 21.22 16.3965 21.54 16.3965 21.88C16.3965 23.08 17.5965 23.84 19.4365 23.84C21.0965 23.84 22.1165 23.18 22.1165 22.08C22.1165 21.24 21.4965 20.7 20.2365 20.46L18.3965 20.14C15.1765 19.58 13.7565 18.24 13.7565 16C13.7565 14.8 14.2365 13.8 15.2165 13C16.1765 12.22 17.4565 11.82 19.0565 11.82C22.7165 11.82 24.6165 13.48 24.8365 16.52L21.8965 16.88C21.6765 15.14 20.6965 14.26 18.9565 14.26C17.6565 14.26 16.7365 14.88 16.7365 15.84C16.7365 16.7 17.4565 17.26 18.9165 17.52L20.7565 17.84C23.7965 18.38 25.0765 19.66 25.0765 21.8C25.0765 23.14 24.5565 24.22 23.5165 25.04C22.4565 25.86 21.0765 26.28 19.3765 26.28ZM30.2806 26H27.3006V12.1H30.2806V17.58H36.4606V12.1H39.4406V26H36.4606V20.3H30.2806V26ZM68.5273 26H65.4073L64.2473 22.66H58.9473L57.8273 26H54.7073L59.6673 12.1H63.5673L68.5273 26ZM61.5473 14.9L59.7273 20.32H63.4273L61.5473 14.9ZM72.9564 26H69.9764V12.1H74.1364L77.6364 19.84L81.0364 12.1H85.2164V26H82.2364V15.7L78.9164 23.08H76.2764L72.9564 15.7V26ZM100.48 26H97.3604L96.2004 22.66H90.9004L89.7804 26H86.6604L91.6204 12.1H95.5204L100.48 26ZM93.5004 14.9L91.6804 20.32H95.3804L93.5004 14.9ZM107.091 26.28C105.231 26.28 103.771 25.88 102.711 25.08C101.651 24.3 101.131 23.26 101.131 22C101.131 21.46 101.231 20.88 101.411 20.3L104.271 20.96C104.171 21.22 104.111 21.54 104.111 21.88C104.111 23.08 105.311 23.84 107.151 23.84C108.811 23.84 109.831 23.18 109.831 22.08C109.831 21.24 109.211 20.7 107.951 20.46L106.111 20.14C102.891 19.58 101.471 18.24 101.471 16C101.471 14.8 101.951 13.8 102.931 13C103.891 12.22 105.171 11.82 106.771 11.82C110.431 11.82 112.331 13.48 112.551 16.52L109.611 16.88C109.391 15.14 108.411 14.26 106.671 14.26C105.371 14.26 104.451 14.88 104.451 15.84C104.451 16.7 105.171 17.26 106.631 17.52L108.471 17.84C111.511 18.38 112.791 19.66 112.791 21.8C112.791 23.14 112.271 24.22 111.231 25.04C110.171 25.86 108.791 26.28 107.091 26.28ZM127.258 26H124.138L122.978 22.66H117.678L116.558 26H113.438L118.398 12.1H122.298L127.258 26ZM120.278 14.9L118.458 20.32H122.158L120.278 14.9Z" fill="#46A627"/>
<path d="M52.9617 26.5C54.4617 28.5 61.9617 28.5 63.9617 28.5V31.5C61.9617 32 56.2561 31.0357 55.9617 31C51.8417 30.5 50.9217 28.5 49.9417 27C48.9617 25.5 47.9817 23.32 47.2417 21.64L46.8217 20.78H44.9417V25.9H41.9617V12H48.2017C49.7017 12 50.9217 12.4 51.8417 13.18C52.7617 13.96 53.2217 15.04 53.2217 16.42C53.2217 18.52 52.0217 19.94 49.9417 20.36C51.0817 22.54 52.2908 25.6056 52.9617 26.5ZM47.8417 14.58H44.9417V18.22H47.8817C49.3617 18.22 50.1017 17.62 50.1017 16.4C50.1017 15.18 49.3417 14.58 47.8417 14.58Z" fill="#46A627"/>
<path d="M120.286 8.08H122.466L124.946 5.18H121.986L120.286 8.08Z" fill="#46A627"/>
</svg>
