<svg width="187" height="54" viewBox="0 0 187 54" fill="none" xmlns="http://www.w3.org/2000/svg">
<g clip-path="url(#clip0_105_966)">
<rect x="8" y="22.2" width="167" height="4" rx="2" fill="#7CD260" fill-opacity="0.4"/>
</g>
<g clip-path="url(#clip1_105_966)">
<rect x="8" y="22.2" width="42" height="4" rx="2" fill="#FEF7FF"/>
<rect x="8" y="22.2" width="42" height="4" rx="2" fill="#46A627"/>
</g>
<rect x="40" y="14.2" width="20" height="20" rx="10" fill="#FEF7FF"/>
<g filter="url(#filter0_dd_105_966)">
<path fill-rule="evenodd" clip-rule="evenodd" d="M50 14.2C55.5228 14.2 60 18.6771 60 24.2C60 29.7228 55.5228 34.2 50 34.2C44.4772 34.2 40 29.7228 40 24.2C40 18.6771 44.4772 14.2 50 14.2Z" fill="#46A627"/>
</g>
<path d="M3.7 49.7929L3.707 48.8549L8.264 44.7389C8.656 44.3843 8.915 44.0483 9.041 43.7309C9.17167 43.4089 9.237 43.0729 9.237 42.7229C9.237 42.3076 9.139 41.9319 8.943 41.5959C8.747 41.2599 8.48333 40.9939 8.152 40.7979C7.82067 40.5973 7.44967 40.4969 7.039 40.4969C6.60967 40.4969 6.227 40.5996 5.891 40.8049C5.555 41.0103 5.289 41.2809 5.093 41.6169C4.90167 41.9529 4.80833 42.3193 4.813 42.7159H3.763C3.763 42.1046 3.90767 41.5563 4.197 41.0709C4.48633 40.5856 4.87833 40.2053 5.373 39.9299C5.86767 39.6499 6.42767 39.5099 7.053 39.5099C7.66433 39.5099 8.21267 39.6546 8.698 39.9439C9.188 40.2286 9.573 40.6159 9.853 41.1059C10.1377 41.5913 10.28 42.1326 10.28 42.7299C10.28 43.1499 10.2287 43.5209 10.126 43.8429C10.028 44.1603 9.87167 44.4566 9.657 44.7319C9.447 45.0026 9.17867 45.2826 8.852 45.5719L4.806 49.2259L4.645 48.8059H10.28V49.7929H3.7ZM15.2544 50.0099C14.6337 50.0099 14.0737 49.8653 13.5744 49.5759C13.0797 49.2866 12.6877 48.8946 12.3984 48.3999C12.109 47.9006 11.9644 47.3406 11.9644 46.7199V42.7999C11.9644 42.1793 12.109 41.6216 12.3984 41.1269C12.6877 40.6276 13.0797 40.2333 13.5744 39.9439C14.0737 39.6546 14.6337 39.5099 15.2544 39.5099C15.875 39.5099 16.4327 39.6546 16.9274 39.9439C17.4267 40.2333 17.821 40.6276 18.1104 41.1269C18.3997 41.6216 18.5444 42.1793 18.5444 42.7999V46.7199C18.5444 47.3406 18.3997 47.9006 18.1104 48.3999C17.821 48.8946 17.4267 49.2866 16.9274 49.5759C16.4327 49.8653 15.875 50.0099 15.2544 50.0099ZM15.2544 49.0159C15.6697 49.0159 16.0477 48.9156 16.3884 48.7149C16.729 48.5096 16.9997 48.2366 17.2004 47.8959C17.401 47.5553 17.5014 47.1796 17.5014 46.7689V42.7509C17.5014 42.3356 17.401 41.9576 17.2004 41.6169C16.9997 41.2763 16.729 41.0056 16.3884 40.8049C16.0477 40.5996 15.6697 40.4969 15.2544 40.4969C14.839 40.4969 14.461 40.5996 14.1204 40.8049C13.7797 41.0056 13.509 41.2763 13.3084 41.6169C13.1077 41.9576 13.0074 42.3356 13.0074 42.7509V46.7689C13.0074 47.1796 13.1077 47.5553 13.3084 47.8959C13.509 48.2366 13.7797 48.5096 14.1204 48.7149C14.461 48.9156 14.839 49.0159 15.2544 49.0159ZM23.7993 50.0099C23.1786 50.0099 22.6186 49.8653 22.1193 49.5759C21.6246 49.2866 21.2326 48.8946 20.9433 48.3999C20.654 47.9006 20.5093 47.3406 20.5093 46.7199V42.7999C20.5093 42.1793 20.654 41.6216 20.9433 41.1269C21.2326 40.6276 21.6246 40.2333 22.1193 39.9439C22.6186 39.6546 23.1786 39.5099 23.7993 39.5099C24.42 39.5099 24.9776 39.6546 25.4723 39.9439C25.9716 40.2333 26.366 40.6276 26.6553 41.1269C26.9446 41.6216 27.0893 42.1793 27.0893 42.7999V46.7199C27.0893 47.3406 26.9446 47.9006 26.6553 48.3999C26.366 48.8946 25.9716 49.2866 25.4723 49.5759C24.9776 49.8653 24.42 50.0099 23.7993 50.0099ZM23.7993 49.0159C24.2146 49.0159 24.5926 48.9156 24.9333 48.7149C25.274 48.5096 25.5446 48.2366 25.7453 47.8959C25.946 47.5553 26.0463 47.1796 26.0463 46.7689V42.7509C26.0463 42.3356 25.946 41.9576 25.7453 41.6169C25.5446 41.2763 25.274 41.0056 24.9333 40.8049C24.5926 40.5996 24.2146 40.4969 23.7993 40.4969C23.384 40.4969 23.006 40.5996 22.6653 40.8049C22.3246 41.0056 22.054 41.2763 21.8533 41.6169C21.6526 41.9576 21.5523 42.3356 21.5523 42.7509V46.7689C21.5523 47.1796 21.6526 47.5553 21.8533 47.8959C22.054 48.2366 22.3246 48.5096 22.6653 48.7149C23.006 48.9156 23.384 49.0159 23.7993 49.0159Z" fill="black"/>
<path d="M153.7 49.7929L153.707 48.8549L158.264 44.7389C158.656 44.3843 158.915 44.0483 159.041 43.7309C159.172 43.4089 159.237 43.0729 159.237 42.7229C159.237 42.3076 159.139 41.9319 158.943 41.5959C158.747 41.2599 158.483 40.9939 158.152 40.7979C157.821 40.5973 157.45 40.4969 157.039 40.4969C156.61 40.4969 156.227 40.5996 155.891 40.8049C155.555 41.0103 155.289 41.2809 155.093 41.6169C154.902 41.9529 154.808 42.3193 154.813 42.7159H153.763C153.763 42.1046 153.908 41.5563 154.197 41.0709C154.486 40.5856 154.878 40.2053 155.373 39.9299C155.868 39.6499 156.428 39.5099 157.053 39.5099C157.664 39.5099 158.213 39.6546 158.698 39.9439C159.188 40.2286 159.573 40.6159 159.853 41.1059C160.138 41.5913 160.28 42.1326 160.28 42.7299C160.28 43.1499 160.229 43.5209 160.126 43.8429C160.028 44.1603 159.872 44.4566 159.657 44.7319C159.447 45.0026 159.179 45.2826 158.852 45.5719L154.806 49.2259L154.645 48.8059H160.28V49.7929H153.7ZM165.254 50.0099C164.634 50.0099 164.074 49.8653 163.574 49.5759C163.08 49.2866 162.688 48.8946 162.398 48.3999C162.109 47.9006 161.964 47.3406 161.964 46.7199V42.7999C161.964 42.1793 162.109 41.6216 162.398 41.1269C162.688 40.6276 163.08 40.2333 163.574 39.9439C164.074 39.6546 164.634 39.5099 165.254 39.5099C165.875 39.5099 166.433 39.6546 166.927 39.9439C167.427 40.2333 167.821 40.6276 168.11 41.1269C168.4 41.6216 168.544 42.1793 168.544 42.7999V46.7199C168.544 47.3406 168.4 47.9006 168.11 48.3999C167.821 48.8946 167.427 49.2866 166.927 49.5759C166.433 49.8653 165.875 50.0099 165.254 50.0099ZM165.254 49.0159C165.67 49.0159 166.048 48.9156 166.388 48.7149C166.729 48.5096 167 48.2366 167.2 47.8959C167.401 47.5553 167.501 47.1796 167.501 46.7689V42.7509C167.501 42.3356 167.401 41.9576 167.2 41.6169C167 41.2763 166.729 41.0056 166.388 40.8049C166.048 40.5996 165.67 40.4969 165.254 40.4969C164.839 40.4969 164.461 40.5996 164.12 40.8049C163.78 41.0056 163.509 41.2763 163.308 41.6169C163.108 41.9576 163.007 42.3356 163.007 42.7509V46.7689C163.007 47.1796 163.108 47.5553 163.308 47.8959C163.509 48.2366 163.78 48.5096 164.12 48.7149C164.461 48.9156 164.839 49.0159 165.254 49.0159ZM173.799 50.0099C173.179 50.0099 172.619 49.8653 172.119 49.5759C171.625 49.2866 171.233 48.8946 170.943 48.3999C170.654 47.9006 170.509 47.3406 170.509 46.7199V42.7999C170.509 42.1793 170.654 41.6216 170.943 41.1269C171.233 40.6276 171.625 40.2333 172.119 39.9439C172.619 39.6546 173.179 39.5099 173.799 39.5099C174.42 39.5099 174.978 39.6546 175.472 39.9439C175.972 40.2333 176.366 40.6276 176.655 41.1269C176.945 41.6216 177.089 42.1793 177.089 42.7999V46.7199C177.089 47.3406 176.945 47.9006 176.655 48.3999C176.366 48.8946 175.972 49.2866 175.472 49.5759C174.978 49.8653 174.42 50.0099 173.799 50.0099ZM173.799 49.0159C174.215 49.0159 174.593 48.9156 174.933 48.7149C175.274 48.5096 175.545 48.2366 175.745 47.8959C175.946 47.5553 176.046 47.1796 176.046 46.7689V42.7509C176.046 42.3356 175.946 41.9576 175.745 41.6169C175.545 41.2763 175.274 41.0056 174.933 40.8049C174.593 40.5996 174.215 40.4969 173.799 40.4969C173.384 40.4969 173.006 40.5996 172.665 40.8049C172.325 41.0056 172.054 41.2763 171.853 41.6169C171.653 41.9576 171.552 42.3356 171.552 42.7509V46.7689C171.552 47.1796 171.653 47.5553 171.853 47.8959C172.054 48.2366 172.325 48.5096 172.665 48.7149C173.006 48.9156 173.384 49.0159 173.799 49.0159ZM182.344 50.0099C181.724 50.0099 181.164 49.8653 180.664 49.5759C180.17 49.2866 179.778 48.8946 179.488 48.3999C179.199 47.9006 179.054 47.3406 179.054 46.7199V42.7999C179.054 42.1793 179.199 41.6216 179.488 41.1269C179.778 40.6276 180.17 40.2333 180.664 39.9439C181.164 39.6546 181.724 39.5099 182.344 39.5099C182.965 39.5099 183.523 39.6546 184.017 39.9439C184.517 40.2333 184.911 40.6276 185.2 41.1269C185.49 41.6216 185.634 42.1793 185.634 42.7999V46.7199C185.634 47.3406 185.49 47.9006 185.2 48.3999C184.911 48.8946 184.517 49.2866 184.017 49.5759C183.523 49.8653 182.965 50.0099 182.344 50.0099ZM182.344 49.0159C182.76 49.0159 183.138 48.9156 183.478 48.7149C183.819 48.5096 184.09 48.2366 184.29 47.8959C184.491 47.5553 184.591 47.1796 184.591 46.7689V42.7509C184.591 42.3356 184.491 41.9576 184.29 41.6169C184.09 41.2763 183.819 41.0056 183.478 40.8049C183.138 40.5996 182.76 40.4969 182.344 40.4969C181.929 40.4969 181.551 40.5996 181.21 40.8049C180.87 41.0056 180.599 41.2763 180.398 41.6169C180.198 41.9576 180.097 42.3356 180.097 42.7509V46.7689C180.097 47.1796 180.198 47.5553 180.398 47.8959C180.599 48.2366 180.87 48.5096 181.21 48.7149C181.551 48.9156 181.929 49.0159 182.344 49.0159Z" fill="black"/>
<defs>
<filter id="filter0_dd_105_966" x="36" y="11.2" width="28" height="28" filterUnits="userSpaceOnUse" color-interpolation-filters="sRGB">
<feFlood flood-opacity="0" result="BackgroundImageFix"/>
<feColorMatrix in="SourceAlpha" type="matrix" values="0 0 0 0 0 0 0 0 0 0 0 0 0 0 0 0 0 0 127 0" result="hardAlpha"/>
<feMorphology radius="1" operator="dilate" in="SourceAlpha" result="effect1_dropShadow_105_966"/>
<feOffset dy="1"/>
<feGaussianBlur stdDeviation="1.5"/>
<feColorMatrix type="matrix" values="0 0 0 0 0 0 0 0 0 0 0 0 0 0 0 0 0 0 0.15 0"/>
<feBlend mode="normal" in2="BackgroundImageFix" result="effect1_dropShadow_105_966"/>
<feColorMatrix in="SourceAlpha" type="matrix" values="0 0 0 0 0 0 0 0 0 0 0 0 0 0 0 0 0 0 127 0" result="hardAlpha"/>
<feOffset dy="1"/>
<feGaussianBlur stdDeviation="1"/>
<feColorMatrix type="matrix" values="0 0 0 0 0 0 0 0 0 0 0 0 0 0 0 0 0 0 0.3 0"/>
<feBlend mode="normal" in2="effect1_dropShadow_105_966" result="effect2_dropShadow_105_966"/>
<feBlend mode="normal" in="SourceGraphic" in2="effect2_dropShadow_105_966" result="shape"/>
</filter>
<clipPath id="clip0_105_966">
<rect x="8" y="22.2" width="167" height="4" rx="2" fill="white"/>
</clipPath>
<clipPath id="clip1_105_966">
<rect x="8" y="22.2" width="42" height="4" rx="2" fill="white"/>
</clipPath>
</defs>
</svg>
