<svg width="20" height="20" viewBox="0 0 20 20" fill="none" xmlns="http://www.w3.org/2000/svg">
<path fill-rule="evenodd" clip-rule="evenodd" d="M9.78887 1.6407C14.0731 1.6407 17.558 5.12557 17.558 9.40985C17.558 11.4312 16.7823 13.2747 15.5129 14.6583L18.0107 17.1508C18.2445 17.3846 18.2453 17.7628 18.0115 17.9965C17.895 18.1146 17.741 18.1728 17.5879 18.1728C17.4355 18.1728 17.2823 18.1146 17.165 17.9981L14.6371 15.4773C13.3073 16.5422 11.6212 17.1798 9.78887 17.1798C5.50459 17.1798 2.01892 13.6941 2.01892 9.40985C2.01892 5.12557 5.50459 1.6407 9.78887 1.6407ZM9.78887 2.83743C6.16438 2.83743 3.21565 5.78536 3.21565 9.40985C3.21565 13.0343 6.16438 15.9831 9.78887 15.9831C13.4126 15.9831 16.3613 13.0343 16.3613 9.40985C16.3613 5.78536 13.4126 2.83743 9.78887 2.83743Z" fill="#46A627" stroke="#46A627" stroke-width="0.342"/>
</svg>
