<svg width="22" height="22" viewBox="0 0 22 22" fill="none" xmlns="http://www.w3.org/2000/svg">
<circle cx="11.0791" cy="10.7403" r="9.225" stroke="#46A627" stroke-width="1.8"/>
<path d="M11.208 15.5017H11.2492C13.6635 15.5017 15.3348 16.5812 16.0722 18.4177C14.7593 19.178 13.5153 19.6474 11.6509 19.6474H10.197C10.1874 19.6453 10.1769 19.6429 10.1658 19.6404C10.0845 19.6218 9.96529 19.594 9.81702 19.5577C9.52001 19.485 9.10877 19.3786 8.65256 19.2446C7.87399 19.0158 7.02801 18.7242 6.39055 18.4046C7.13124 16.5758 8.79983 15.5017 11.208 15.5017Z" stroke="#46A627" stroke-width="1.8"/>
<path d="M13.8664 8.80565C13.8664 10.4223 12.5499 11.7387 10.9333 11.7387C9.31653 11.7387 8.0001 10.4223 8.0001 8.80565C8.0001 7.18809 9.31666 5.87175 10.9333 5.87175C12.5498 5.87175 13.8664 7.18808 13.8664 8.80565Z" stroke="#46A627" stroke-width="1.8"/>
</svg>
