<svg width="51" height="51" viewBox="0 0 51 51" fill="none" xmlns="http://www.w3.org/2000/svg">
<rect x="1" y="1" width="49" height="49" rx="11" stroke="black" stroke-width="2"/>
<path fill-rule="evenodd" clip-rule="evenodd" d="M30.3488 34.285H22.0844C19.0487 34.285 16.7199 33.1885 17.3814 28.7754L18.1516 22.7946C18.5594 20.5926 19.964 19.7499 21.1964 19.7499H31.2731C32.5236 19.7499 33.8466 20.6561 34.3178 22.7946L35.0881 28.7754C35.6499 32.6901 33.3845 34.285 30.3488 34.285Z" stroke="black" stroke-width="1.98" stroke-linecap="round" stroke-linejoin="round"/>
<path d="M30.4846 19.5324C30.4846 17.1702 28.5696 15.2552 26.2074 15.2552C25.0699 15.2504 23.9773 15.6989 23.1713 16.5016C22.3652 17.3042 21.9121 18.3949 21.9121 19.5324" stroke="black" stroke-width="1.98" stroke-linecap="round" stroke-linejoin="round"/>
<path d="M29.1435 23.9908H29.0981" stroke="black" stroke-width="1.98" stroke-linecap="round" stroke-linejoin="round"/>
<path d="M23.3712 23.9908H23.3259" stroke="black" stroke-width="1.98" stroke-linecap="round" stroke-linejoin="round"/>
</svg>
