<svg width="76" height="18" viewBox="0 0 76 18" fill="none" xmlns="http://www.w3.org/2000/svg">
<path d="M7.70156 3.44221C8.0536 2.35875 9.5864 2.35875 9.93844 3.44221L10.5362 5.28187C10.6936 5.76641 11.1452 6.09447 11.6546 6.09447H13.589C14.7282 6.09447 15.2018 7.55226 14.2802 8.22187L12.7153 9.35885C12.3031 9.65831 12.1306 10.1891 12.2881 10.6737L12.8858 12.5133C13.2379 13.5968 11.9978 14.4977 11.0761 13.8281L9.51123 12.6912C9.09906 12.3917 8.54094 12.3917 8.12876 12.6912L6.56385 13.8281C5.6422 14.4977 4.40214 13.5968 4.75418 12.5133L5.35192 10.6737C5.50936 10.1891 5.33688 9.65831 4.92471 9.35885L3.3598 8.22187C2.43815 7.55226 2.91182 6.09447 4.05104 6.09447H5.98537C6.49485 6.09447 6.94638 5.76641 7.10382 5.28187L7.70156 3.44221Z" fill="#579B41"/>
<path d="M22.2056 3.44221C22.5576 2.35875 24.0904 2.35875 24.4425 3.44221L25.0402 5.28187C25.1976 5.76641 25.6492 6.09447 26.1587 6.09447H28.093C29.2322 6.09447 29.7059 7.55226 28.7842 8.22187L27.2193 9.35885C26.8071 9.65831 26.6347 10.1891 26.7921 10.6737L27.3899 12.5133C27.7419 13.5968 26.5018 14.4977 25.5802 13.8281L24.0153 12.6912C23.6031 12.3917 23.045 12.3917 22.6328 12.6912L21.0679 13.8281C20.1462 14.4977 18.9062 13.5968 19.2582 12.5133L19.8559 10.6737C20.0134 10.1891 19.8409 9.65831 19.4287 9.35885L17.8638 8.22187C16.9422 7.55226 17.4158 6.09447 18.5551 6.09447H20.4894C20.9989 6.09447 21.4504 5.76641 21.6078 5.28187L22.2056 3.44221Z" fill="#579B41"/>
<path d="M36.7096 3.44221C37.0617 2.35875 38.5945 2.35875 38.9465 3.44221L39.5442 5.28187C39.7017 5.76641 40.1532 6.09447 40.6627 6.09447H42.597C43.7362 6.09447 44.2099 7.55226 43.2883 8.22187L41.7233 9.35885C41.3112 9.65831 41.1387 10.1891 41.2961 10.6737L41.8939 12.5133C42.2459 13.5968 41.0058 14.4977 40.0842 13.8281L38.5193 12.6912C38.1071 12.3917 37.549 12.3917 37.1368 12.6912L35.5719 13.8281C34.6503 14.4977 33.4102 13.5968 33.7622 12.5133L34.36 10.6737C34.5174 10.1891 34.3449 9.65831 33.9328 9.35885L32.3679 8.22187C31.4462 7.55226 31.9199 6.09447 33.0591 6.09447H34.9934C35.5029 6.09447 35.9544 5.76641 36.1119 5.28187L36.7096 3.44221Z" fill="#579B41"/>
<path d="M51.2135 3.44221C51.5656 2.35875 53.0984 2.35875 53.4504 3.44221L54.0481 5.28187C54.2056 5.76641 54.6571 6.09447 55.1666 6.09447H57.1009C58.2401 6.09447 58.7138 7.55226 57.7922 8.22187L56.2272 9.35885C55.8151 9.65831 55.6426 10.1891 55.8 10.6737L56.3978 12.5133C56.7498 13.5968 55.5098 14.4977 54.5881 13.8281L53.0232 12.6912C52.611 12.3917 52.0529 12.3917 51.6407 12.6912L50.0758 13.8281C49.1542 14.4977 47.9141 13.5968 48.2661 12.5133L48.8639 10.6737C49.0213 10.1891 48.8488 9.65831 48.4367 9.35885L46.8718 8.22187C45.9501 7.55226 46.4238 6.09447 47.563 6.09447H49.4973C50.0068 6.09447 50.4583 5.76641 50.6158 5.28187L51.2135 3.44221Z" fill="#579B41"/>
<path d="M65.7175 3.44221C66.0696 2.35875 67.6024 2.35875 67.9544 3.44221L68.5522 5.28187C68.7096 5.76641 69.1611 6.09447 69.6706 6.09447H71.605C72.7442 6.09447 73.2178 7.55226 72.2962 8.22187L70.7313 9.35885C70.3191 9.65831 70.1466 10.1891 70.3041 10.6737L70.9018 12.5133C71.2539 13.5968 70.0138 14.4977 69.0921 13.8281L67.5272 12.6912C67.1151 12.3917 66.5569 12.3917 66.1448 12.6912L64.5798 13.8281C63.6582 14.4977 62.4181 13.5968 62.7702 12.5133L63.3679 10.6737C63.5253 10.1891 63.3529 9.65831 62.9407 9.35885L61.3758 8.22187C60.4541 7.55226 60.9278 6.09447 62.067 6.09447H64.0014C64.5108 6.09447 64.9624 5.76641 65.1198 5.28187L65.7175 3.44221Z" fill="#C2C2C2"/>
</svg>
